<svg xmlns="http://www.w3.org/2000/svg" viewBox="0 0 900 420" width="900" height="420">
<defs><linearGradient id="tbg" x1="0%" y1="0%" x2="0%" y2="100%">
<stop offset="0%" stop-color="#0d1117"/><stop offset="100%" stop-color="#161b22"/>
</linearGradient></defs>
<rect width="900" height="420" rx="12" fill="url(#tbg)"/>
<text x="450.0" y="28" text-anchor="middle" fill="#e6edf3" font-size="16" font-weight="bold">Awesome MCP Servers 收录趋势</text>
<text x="450.0" y="46" text-anchor="middle" fill="#8b949e" font-size="12">总收录 4668 · 累计新增 346 · Stars 5,774,207</text>
<text x="62" y="340.0" text-anchor="end" fill="#8b949e" font-size="11" dominant-baseline="middle">0</text>
<line x1="70" y1="340.0" x2="870" y2="340.0" stroke="#21262d" stroke-dasharray="4 4"/>
<text x="62" y="268.8" text-anchor="end" fill="#8b949e" font-size="11" dominant-baseline="middle">1167</text>
<line x1="70" y1="268.8" x2="870" y2="268.8" stroke="#21262d" stroke-dasharray="4 4"/>
<text x="62" y="197.5" text-anchor="end" fill="#8b949e" font-size="11" dominant-baseline="middle">2334</text>
<line x1="70" y1="197.5" x2="870" y2="197.5" stroke="#21262d" stroke-dasharray="4 4"/>
<text x="62" y="126.2" text-anchor="end" fill="#8b949e" font-size="11" dominant-baseline="middle">3501</text>
<line x1="70" y1="126.2" x2="870" y2="126.2" stroke="#21262d" stroke-dasharray="4 4"/>
<text x="62" y="55.0" text-anchor="end" fill="#8b949e" font-size="11" dominant-baseline="middle">4668</text>
<line x1="70" y1="55.0" x2="870" y2="55.0" stroke="#21262d" stroke-dasharray="4 4"/>

<line x1="70" y1="55" x2="70" y2="340" stroke="#30363d"/>
<line x1="70" y1="340" x2="870" y2="340" stroke="#30363d"/>
<path d="M70.0,75.1 L97.6,74.5 L125.2,73.7 L152.8,72.6 L180.3,72.3 L207.9,71.5 L235.5,71.3 L263.1,70.6 L290.7,70.0 L318.3,69.4 L345.9,68.9 L373.4,68.6 L401.0,67.8 L428.6,67.3 L456.2,66.7 L483.8,66.1 L511.4,65.5 L539.0,64.7 L566.6,63.9 L594.1,63.0 L621.7,62.6 L649.3,62.3 L676.9,61.9 L704.5,60.8 L732.1,59.8 L759.7,58.7 L787.2,57.9 L814.8,56.2 L842.4,55.7 L870.0,55.0 L870.0,340 L70.0,340 Z" fill="#58a6ff" opacity="0.12"/>
<polyline points="70.0,75.1 97.6,74.5 125.2,73.7 152.8,72.6 180.3,72.3 207.9,71.5 235.5,71.3 263.1,70.6 290.7,70.0 318.3,69.4 345.9,68.9 373.4,68.6 401.0,67.8 428.6,67.3 456.2,66.7 483.8,66.1 511.4,65.5 539.0,64.7 566.6,63.9 594.1,63.0 621.7,62.6 649.3,62.3 676.9,61.9 704.5,60.8 732.1,59.8 759.7,58.7 787.2,57.9 814.8,56.2 842.4,55.7 870.0,55.0" fill="none" stroke="#58a6ff" stroke-width="2.5" stroke-linecap="round" stroke-linejoin="round"/>
<circle cx="70.0" cy="75.1" r="3" fill="#58a6ff" stroke="#0d1117" stroke-width="1.5"/>
<circle cx="97.6" cy="74.5" r="3" fill="#58a6ff" stroke="#0d1117" stroke-width="1.5"/>
<circle cx="125.2" cy="73.7" r="3" fill="#58a6ff" stroke="#0d1117" stroke-width="1.5"/>
<circle cx="152.8" cy="72.6" r="3" fill="#58a6ff" stroke="#0d1117" stroke-width="1.5"/>
<circle cx="180.3" cy="72.3" r="3" fill="#58a6ff" stroke="#0d1117" stroke-width="1.5"/>
<circle cx="207.9" cy="71.5" r="3" fill="#58a6ff" stroke="#0d1117" stroke-width="1.5"/>
<circle cx="235.5" cy="71.3" r="3" fill="#58a6ff" stroke="#0d1117" stroke-width="1.5"/>
<circle cx="263.1" cy="70.6" r="3" fill="#58a6ff" stroke="#0d1117" stroke-width="1.5"/>
<circle cx="290.7" cy="70.0" r="3" fill="#58a6ff" stroke="#0d1117" stroke-width="1.5"/>
<circle cx="318.3" cy="69.4" r="3" fill="#58a6ff" stroke="#0d1117" stroke-width="1.5"/>
<circle cx="345.9" cy="68.9" r="3" fill="#58a6ff" stroke="#0d1117" stroke-width="1.5"/>
<circle cx="373.4" cy="68.6" r="3" fill="#58a6ff" stroke="#0d1117" stroke-width="1.5"/>
<circle cx="401.0" cy="67.8" r="3" fill="#58a6ff" stroke="#0d1117" stroke-width="1.5"/>
<circle cx="428.6" cy="67.3" r="3" fill="#58a6ff" stroke="#0d1117" stroke-width="1.5"/>
<circle cx="456.2" cy="66.7" r="3" fill="#58a6ff" stroke="#0d1117" stroke-width="1.5"/>
<circle cx="483.8" cy="66.1" r="3" fill="#58a6ff" stroke="#0d1117" stroke-width="1.5"/>
<circle cx="511.4" cy="65.5" r="3" fill="#58a6ff" stroke="#0d1117" stroke-width="1.5"/>
<circle cx="539.0" cy="64.7" r="3" fill="#58a6ff" stroke="#0d1117" stroke-width="1.5"/>
<circle cx="566.6" cy="63.9" r="3" fill="#58a6ff" stroke="#0d1117" stroke-width="1.5"/>
<circle cx="594.1" cy="63.0" r="3" fill="#58a6ff" stroke="#0d1117" stroke-width="1.5"/>
<circle cx="621.7" cy="62.6" r="3" fill="#58a6ff" stroke="#0d1117" stroke-width="1.5"/>
<circle cx="649.3" cy="62.3" r="3" fill="#58a6ff" stroke="#0d1117" stroke-width="1.5"/>
<circle cx="676.9" cy="61.9" r="3" fill="#58a6ff" stroke="#0d1117" stroke-width="1.5"/>
<circle cx="704.5" cy="60.8" r="3" fill="#58a6ff" stroke="#0d1117" stroke-width="1.5"/>
<circle cx="732.1" cy="59.8" r="3" fill="#58a6ff" stroke="#0d1117" stroke-width="1.5"/>
<circle cx="759.7" cy="58.7" r="3" fill="#58a6ff" stroke="#0d1117" stroke-width="1.5"/>
<circle cx="787.2" cy="57.9" r="3" fill="#58a6ff" stroke="#0d1117" stroke-width="1.5"/>
<circle cx="814.8" cy="56.2" r="3" fill="#58a6ff" stroke="#0d1117" stroke-width="1.5"/>
<circle cx="842.4" cy="55.7" r="3" fill="#58a6ff" stroke="#0d1117" stroke-width="1.5"/>
<circle cx="870.0" cy="55.0" r="3" fill="#58a6ff" stroke="#0d1117" stroke-width="1.5"/>
<path d="M70.0,160.6 L97.6,234.4 L125.2,202.8 L152.8,160.6 L180.3,276.7 L207.9,202.8 L235.5,308.3 L263.1,213.3 L290.7,245.0 L318.3,234.4 L345.9,245.0 L373.4,297.8 L401.0,202.8 L428.6,245.0 L456.2,245.0 L483.8,234.4 L511.4,234.4 L539.0,202.8 L566.6,192.2 L594.1,192.2 L621.7,266.1 L649.3,297.8 L676.9,266.1 L704.5,150.0 L732.1,160.6 L759.7,160.6 L787.2,192.2 L814.8,55.0 L842.4,245.0 L870.0,223.9 L870.0,340 L70.0,340 Z" fill="#3fb950" opacity="0.12"/>
<polyline points="70.0,160.6 97.6,234.4 125.2,202.8 152.8,160.6 180.3,276.7 207.9,202.8 235.5,308.3 263.1,213.3 290.7,245.0 318.3,234.4 345.9,245.0 373.4,297.8 401.0,202.8 428.6,245.0 456.2,245.0 483.8,234.4 511.4,234.4 539.0,202.8 566.6,192.2 594.1,192.2 621.7,266.1 649.3,297.8 676.9,266.1 704.5,150.0 732.1,160.6 759.7,160.6 787.2,192.2 814.8,55.0 842.4,245.0 870.0,223.9" fill="none" stroke="#3fb950" stroke-width="2.5" stroke-linecap="round" stroke-linejoin="round"/>
<circle cx="70.0" cy="160.6" r="3" fill="#3fb950" stroke="#0d1117" stroke-width="1.5"/>
<circle cx="97.6" cy="234.4" r="3" fill="#3fb950" stroke="#0d1117" stroke-width="1.5"/>
<circle cx="125.2" cy="202.8" r="3" fill="#3fb950" stroke="#0d1117" stroke-width="1.5"/>
<circle cx="152.8" cy="160.6" r="3" fill="#3fb950" stroke="#0d1117" stroke-width="1.5"/>
<circle cx="180.3" cy="276.7" r="3" fill="#3fb950" stroke="#0d1117" stroke-width="1.5"/>
<circle cx="207.9" cy="202.8" r="3" fill="#3fb950" stroke="#0d1117" stroke-width="1.5"/>
<circle cx="235.5" cy="308.3" r="3" fill="#3fb950" stroke="#0d1117" stroke-width="1.5"/>
<circle cx="263.1" cy="213.3" r="3" fill="#3fb950" stroke="#0d1117" stroke-width="1.5"/>
<circle cx="290.7" cy="245.0" r="3" fill="#3fb950" stroke="#0d1117" stroke-width="1.5"/>
<circle cx="318.3" cy="234.4" r="3" fill="#3fb950" stroke="#0d1117" stroke-width="1.5"/>
<circle cx="345.9" cy="245.0" r="3" fill="#3fb950" stroke="#0d1117" stroke-width="1.5"/>
<circle cx="373.4" cy="297.8" r="3" fill="#3fb950" stroke="#0d1117" stroke-width="1.5"/>
<circle cx="401.0" cy="202.8" r="3" fill="#3fb950" stroke="#0d1117" stroke-width="1.5"/>
<circle cx="428.6" cy="245.0" r="3" fill="#3fb950" stroke="#0d1117" stroke-width="1.5"/>
<circle cx="456.2" cy="245.0" r="3" fill="#3fb950" stroke="#0d1117" stroke-width="1.5"/>
<circle cx="483.8" cy="234.4" r="3" fill="#3fb950" stroke="#0d1117" stroke-width="1.5"/>
<circle cx="511.4" cy="234.4" r="3" fill="#3fb950" stroke="#0d1117" stroke-width="1.5"/>
<circle cx="539.0" cy="202.8" r="3" fill="#3fb950" stroke="#0d1117" stroke-width="1.5"/>
<circle cx="566.6" cy="192.2" r="3" fill="#3fb950" stroke="#0d1117" stroke-width="1.5"/>
<circle cx="594.1" cy="192.2" r="3" fill="#3fb950" stroke="#0d1117" stroke-width="1.5"/>
<circle cx="621.7" cy="266.1" r="3" fill="#3fb950" stroke="#0d1117" stroke-width="1.5"/>
<circle cx="649.3" cy="297.8" r="3" fill="#3fb950" stroke="#0d1117" stroke-width="1.5"/>
<circle cx="676.9" cy="266.1" r="3" fill="#3fb950" stroke="#0d1117" stroke-width="1.5"/>
<circle cx="704.5" cy="150.0" r="3" fill="#3fb950" stroke="#0d1117" stroke-width="1.5"/>
<circle cx="732.1" cy="160.6" r="3" fill="#3fb950" stroke="#0d1117" stroke-width="1.5"/>
<circle cx="759.7" cy="160.6" r="3" fill="#3fb950" stroke="#0d1117" stroke-width="1.5"/>
<circle cx="787.2" cy="192.2" r="3" fill="#3fb950" stroke="#0d1117" stroke-width="1.5"/>
<circle cx="814.8" cy="55.0" r="3" fill="#3fb950" stroke="#0d1117" stroke-width="1.5"/>
<circle cx="842.4" cy="245.0" r="3" fill="#3fb950" stroke="#0d1117" stroke-width="1.5"/>
<circle cx="870.0" cy="223.9" r="3" fill="#3fb950" stroke="#0d1117" stroke-width="1.5"/>
<text x="70.0" y="390" text-anchor="middle" fill="#8b949e" font-size="11">05-30</text>
<text x="180.3" y="390" text-anchor="middle" fill="#8b949e" font-size="11">06-04</text>
<text x="290.7" y="390" text-anchor="middle" fill="#8b949e" font-size="11">06-08</text>
<text x="401.0" y="390" text-anchor="middle" fill="#8b949e" font-size="11">06-12</text>
<text x="511.4" y="390" text-anchor="middle" fill="#8b949e" font-size="11">06-16</text>
<text x="621.7" y="390" text-anchor="middle" fill="#8b949e" font-size="11">06-20</text>
<text x="732.1" y="390" text-anchor="middle" fill="#8b949e" font-size="11">06-24</text>
<text x="842.4" y="390" text-anchor="middle" fill="#8b949e" font-size="11">06-30</text>

<rect x="640" y="402" width="12" height="12" rx="2" fill="#58a6ff"/>
<text x="656" y="412" fill="#8b949e" font-size="11">总数</text>
<rect x="750" y="402" width="12" height="12" rx="2" fill="#3fb950"/>
<text x="766" y="412" fill="#8b949e" font-size="11">每日新增</text>
</svg>