<svg xmlns="http://www.w3.org/2000/svg" xmlns:xlink="http://www.w3.org/1999/xlink" viewBox="0 0 718 718" width="718" height="718">
<rect width="718" height="718" rx="10" fill="#ffffff"/>
<text x="359.0" y="24" text-anchor="middle" fill="#000000" font-size="14" font-weight="bold">Awesome MCP Servers</text>
<text x="359.0" y="42" text-anchor="middle" fill="#333333" font-size="10">每日热门 (2026-03-02)</text>
<rect x="24" y="56" width="670" height="32" fill="#f6f8fa" rx="4"/>
<text x="44.0" y="78" text-anchor="middle" fill="#333333" font-size="11">#</text>
<text x="174.0" y="78" text-anchor="middle" fill="#333333" font-size="11">项目</text>
<text x="324.0" y="78" text-anchor="middle" fill="#333333" font-size="11">⭐</text>
<text x="396.0" y="78" text-anchor="middle" fill="#333333" font-size="11">📈 日增</text>
<text x="561.0" y="78" text-anchor="middle" fill="#333333" font-size="11">描述</text>
<line x1="24" y1="88" x2="694" y2="88" stroke="#d0d7de" stroke-width="1"/>
<text x="44.0" y="104" text-anchor="middle" fill="#000000" font-size="11">1</text>
<text x="174.0" y="104" text-anchor="middle" fill="#000000" font-size="11">affaan-m/everything-claud...</text>
<text x="324.0" y="104" text-anchor="middle" fill="#000000" font-size="11">55,661</text>
<text x="396.0" y="104" text-anchor="middle" fill="#000000" font-size="11">+351</text>
<text x="561.0" y="104" text-anchor="middle" fill="#000000" font-size="11">经纪人利用性能优化系统,技能,本能,</text>
<text x="561.0" y="118" text-anchor="middle" fill="#000000" font-size="11">记忆,安全,以及对克劳德代码,Cod</text>
<line x1="24" y1="138" x2="694" y2="138" stroke="#d0d7de" stroke-width="0.5"/>
<text x="44.0" y="150" text-anchor="middle" fill="#000000" font-size="11">2</text>
<text x="174.0" y="150" text-anchor="middle" fill="#000000" font-size="11">mksglu/claude-context-mode</text>
<text x="324.0" y="150" text-anchor="middle" fill="#000000" font-size="11">946</text>
<text x="396.0" y="150" text-anchor="middle" fill="#000000" font-size="11">+238</text>
<text x="561.0" y="150" text-anchor="middle" fill="#000000" font-size="11">停止对大输出失去背景.</text>
<line x1="24" y1="184" x2="694" y2="184" stroke="#d0d7de" stroke-width="0.5"/>
<text x="44.0" y="196" text-anchor="middle" fill="#000000" font-size="11">3</text>
<text x="174.0" y="196" text-anchor="middle" fill="#000000" font-size="11">ruvnet/ruflo</text>
<text x="324.0" y="196" text-anchor="middle" fill="#000000" font-size="11">17,005</text>
<text x="396.0" y="196" text-anchor="middle" fill="#000000" font-size="11">+186</text>
<text x="561.0" y="196" text-anchor="middle" fill="#000000" font-size="11"> 克劳德的领先代理配套平台.部署智能</text>
<text x="561.0" y="210" text-anchor="middle" fill="#000000" font-size="11">多代理群体,协调自主工作流程,构建对</text>
<line x1="24" y1="230" x2="694" y2="230" stroke="#d0d7de" stroke-width="0.5"/>
<text x="44.0" y="242" text-anchor="middle" fill="#000000" font-size="11">4</text>
<text x="174.0" y="242" text-anchor="middle" fill="#000000" font-size="11">D4Vinci/Scrapling</text>
<text x="324.0" y="242" text-anchor="middle" fill="#000000" font-size="11">19,318</text>
<text x="396.0" y="242" text-anchor="middle" fill="#000000" font-size="11">+167</text>
<text x="561.0" y="242" text-anchor="middle" fill="#000000" font-size="11">️ 适应性Web Scraping框</text>
<text x="561.0" y="256" text-anchor="middle" fill="#000000" font-size="11">架,从一个请求到一个全规模的爬虫处理</text>
<line x1="24" y1="276" x2="694" y2="276" stroke="#d0d7de" stroke-width="0.5"/>
<text x="44.0" y="288" text-anchor="middle" fill="#000000" font-size="11">5</text>
<text x="174.0" y="288" text-anchor="middle" fill="#000000" font-size="11">ComposioHQ/awesome-claude...</text>
<text x="324.0" y="288" text-anchor="middle" fill="#000000" font-size="11">39,042</text>
<text x="396.0" y="288" text-anchor="middle" fill="#000000" font-size="11">+137</text>
<text x="561.0" y="288" text-anchor="middle" fill="#000000" font-size="11">编辑列表: 伟大的克劳德技能,资源和</text>
<text x="561.0" y="302" text-anchor="middle" fill="#000000" font-size="11">工具,</text>
<line x1="24" y1="322" x2="694" y2="322" stroke="#d0d7de" stroke-width="0.5"/>
<text x="44.0" y="334" text-anchor="middle" fill="#000000" font-size="11">6</text>
<text x="174.0" y="334" text-anchor="middle" fill="#000000" font-size="11">farion1231/cc-switch</text>
<text x="324.0" y="334" text-anchor="middle" fill="#000000" font-size="11">22,090</text>
<text x="396.0" y="334" text-anchor="middle" fill="#000000" font-size="11">+130</text>
<text x="561.0" y="334" text-anchor="middle" fill="#000000" font-size="11">一个跨平台桌面所有在一个助理工具,用</text>
<text x="561.0" y="348" text-anchor="middle" fill="#000000" font-size="11">于克劳德代码,Codex,OpenC</text>
<line x1="24" y1="368" x2="694" y2="368" stroke="#d0d7de" stroke-width="0.5"/>
<text x="44.0" y="380" text-anchor="middle" fill="#000000" font-size="11">7</text>
<text x="174.0" y="380" text-anchor="middle" fill="#000000" font-size="11">superset-sh/superset</text>
<text x="324.0" y="380" text-anchor="middle" fill="#000000" font-size="11">2,692</text>
<text x="396.0" y="380" text-anchor="middle" fill="#000000" font-size="11">+118</text>
<text x="561.0" y="380" text-anchor="middle" fill="#000000" font-size="11">智能化代理时代的IDE -</text>
<text x="561.0" y="394" text-anchor="middle" fill="#000000" font-size="11">在机器上运行一个克劳德代码,Codex等的军</text>
<line x1="24" y1="414" x2="694" y2="414" stroke="#d0d7de" stroke-width="0.5"/>
<text x="44.0" y="426" text-anchor="middle" fill="#000000" font-size="11">8</text>
<text x="174.0" y="426" text-anchor="middle" fill="#000000" font-size="11">ForLoopCodes/contextplus</text>
<text x="324.0" y="426" text-anchor="middle" fill="#000000" font-size="11">917</text>
<text x="396.0" y="426" text-anchor="middle" fill="#000000" font-size="11">+113</text>
<text x="561.0" y="426" text-anchor="middle" fill="#000000" font-size="11">语义智能大规模工程. 语境+</text>
<text x="561.0" y="440" text-anchor="middle" fill="#000000" font-size="11">是一个为需要99%的准确性开发人员设计的M</text>
<line x1="24" y1="460" x2="694" y2="460" stroke="#d0d7de" stroke-width="0.5"/>
<text x="44.0" y="472" text-anchor="middle" fill="#000000" font-size="11">9</text>
<text x="174.0" y="472" text-anchor="middle" fill="#000000" font-size="11">sickn33/antigravity-aweso...</text>
<text x="324.0" y="472" text-anchor="middle" fill="#000000" font-size="11">17,529</text>
<text x="396.0" y="472" text-anchor="middle" fill="#000000" font-size="11">+109</text>
<text x="561.0" y="472" text-anchor="middle" fill="#000000" font-size="11">对于克劳德代码/反重力/课程的900</text>
<text x="561.0" y="486" text-anchor="middle" fill="#000000" font-size="11">多种代理技能的终极集合.</text>
<line x1="24" y1="506" x2="694" y2="506" stroke="#d0d7de" stroke-width="0.5"/>
<text x="44.0" y="518" text-anchor="middle" fill="#000000" font-size="11">10</text>
<text x="174.0" y="518" text-anchor="middle" fill="#000000" font-size="11">Panniantong/Agent-Reach</text>
<text x="324.0" y="518" text-anchor="middle" fill="#000000" font-size="11">3,332</text>
<text x="396.0" y="518" text-anchor="middle" fill="#000000" font-size="11">+105</text>
<text x="561.0" y="518" text-anchor="middle" fill="#000000" font-size="11">让你的AI代理看到整个互联网.阅读和</text>
<text x="561.0" y="532" text-anchor="middle" fill="#000000" font-size="11">搜索Twitter,Reddit,Y</text>
<line x1="24" y1="552" x2="694" y2="552" stroke="#d0d7de" stroke-width="0.5"/>
<a xlink:href="https://github.com/lllray/awesome-mcp-servers"><text x="694" y="708" text-anchor="end" fill="#57606a" font-size="10">github.com/lllray/awesome-mcp-ser...</text></a>
</svg>